<?xml version="1.0" encoding="UTF-8" standalone="no"?>
<!-- Created with Inkscape (http://www.inkscape.org/) -->

<svg
   width="41.257301"
   height="49.999054"
   viewBox="0 0 10.915995 13.228917"
   version="1.1"
   id="svg931"
   xmlns="http://www.w3.org/2000/svg"
   xmlns:svg="http://www.w3.org/2000/svg">
  <defs
     id="defs928" />
  <g
     id="layer1"
     transform="translate(-160.81274,-137.26169)">
    <g
       id="g1081"
       transform="matrix(0.90497693,0,0,0.90497693,15.280923,13.043003)">
      <g
         id="path4147-7">
        <path
           style="color:#000000;fill:#717171;stroke-width:0.0481347;-inkscape-stroke:none"
           d="m 172.33407,140.8912 a 5.3721828,3.5026634 0 0 1 -5.37219,3.50267 5.3721828,3.5026634 0 0 1 -5.37218,-3.50267 5.3721828,3.5026634 0 0 1 5.37218,-3.50266 5.3721828,3.5026634 0 0 1 5.37219,3.50266 z"
           id="path1174" />
        <path
           style="color:#000000;fill:#717171;-inkscape-stroke:none"
           d="m 166.96094,137.36523 c -1.48773,0 -2.83369,0.39239 -3.81055,1.0293 -0.97686,0.63692 -1.58398,1.51889 -1.58398,2.49609 -1e-5,0.97721 0.60712,1.86113 1.58398,2.49805 0.97686,0.63692 2.32282,1.0293 3.81055,1.0293 1.48773,0 2.83563,-0.39238 3.8125,-1.0293 0.97686,-0.63692 1.58398,-1.52084 1.58398,-2.49805 0,-0.9772 -0.60712,-1.85917 -1.58398,-2.49609 -0.97687,-0.63691 -2.32478,-1.0293 -3.8125,-1.0293 z m 0,0.0469 c 1.47924,0 2.81962,0.39264 3.78711,1.02344 0.96748,0.63079 1.5625,1.49782 1.5625,2.45507 0,0.95727 -0.59502,1.82624 -1.5625,2.45704 -0.96749,0.6308 -2.30786,1.02148 -3.78711,1.02148 -1.47925,0 -2.81768,-0.39068 -3.78516,-1.02148 -0.96748,-0.6308 -1.5625,-1.49978 -1.5625,-2.45704 0,-0.95725 0.59502,-1.82428 1.5625,-2.45507 0.96748,-0.6308 2.30591,-1.02344 3.78516,-1.02344 z"
           id="path1176" />
      </g>
      <g
         id="path4147">
        <path
           style="color:#000000;fill:#ffffff;stroke-width:0.0481347;-inkscape-stroke:none"
           d="m 172.33639,140.78815 a 5.3721828,3.5026634 0 0 1 -5.37219,3.50266 5.3721828,3.5026634 0 0 1 -5.37218,-3.50266 5.3721828,3.5026634 0 0 1 5.37218,-3.50267 5.3721828,3.5026634 0 0 1 5.37219,3.50267 z"
           id="path1180" />
        <path
           style="color:#000000;fill:#717171;-inkscape-stroke:none"
           d="m 166.96484,137.26172 c -1.48772,0 -2.83563,0.39238 -3.8125,1.0293 -0.97686,0.63691 -1.58398,1.52083 -1.58398,2.49804 0,0.97721 0.60712,1.85918 1.58398,2.4961 0.97687,0.63691 2.32478,1.02929 3.8125,1.02929 1.48773,0 2.83368,-0.39238 3.81055,-1.02929 0.97687,-0.63692 1.58594,-1.51889 1.58594,-2.4961 0,-0.97721 -0.60907,-1.86113 -1.58594,-2.49804 -0.97687,-0.63692 -2.32282,-1.0293 -3.81055,-1.0293 z m 0,0.0469 c 1.47925,0 2.81768,0.39264 3.78516,1.02344 0.96748,0.6308 1.5625,1.49977 1.5625,2.45703 0,0.95726 -0.59502,1.82428 -1.5625,2.45508 -0.96748,0.6308 -2.30591,1.02344 -3.78516,1.02344 -1.47924,0 -2.81963,-0.39264 -3.78711,-1.02344 -0.96748,-0.6308 -1.56249,-1.49782 -1.5625,-2.45508 0,-0.95726 0.59502,-1.82623 1.5625,-2.45703 0.96749,-0.6308 2.30787,-1.02344 3.78711,-1.02344 z"
           id="path1182" />
      </g>
      <g
         id="path4190-3-46">
        <path
           style="color:#000000;fill:#ff9b6b;fill-rule:evenodd;stroke-width:0.0481347;-inkscape-stroke:none"
           d="m 167.02491,141.95453 0.0133,1.73471 2.75686,-0.003 -0.2083,-1.7264 -1.1042,-0.0108 c -0.0307,0.24783 -0.1453,0.26847 -0.23611,0.26384 -0.16156,-0.009 -0.23553,-0.12881 -0.25416,-0.2565 z"
           id="path1186" />
        <path
           style="color:#000000;fill:#ffffff;fill-rule:evenodd;-inkscape-stroke:none"
           d="m 168.46094,141.92383 -0.002,0.0215 c -0.0149,0.12037 -0.0505,0.18062 -0.0879,0.21094 -0.0374,0.0303 -0.08,0.0354 -0.12304,0.0332 -0.0751,-0.004 -0.12697,-0.0336 -0.16407,-0.0762 -0.0371,-0.0425 -0.0595,-0.0998 -0.0684,-0.16016 l -0.002,-0.0215 -1.01367,-0.002 v 0.0254 l 0.0137,1.75781 2.8086,-0.002 -0.21485,-1.77539 z m 0.0352,0.0488 1.06836,0.0117 0.20313,1.67774 -2.70508,0.004 -0.0137,-1.6875 0.92969,0.002 c 0.0118,0.059 0.0287,0.11856 0.0684,0.16406 0.0449,0.0515 0.11273,0.087 0.19922,0.0918 0.0477,0.002 0.10596,-0.002 0.15625,-0.043 0.0458,-0.0371 0.0758,-0.11322 0.0937,-0.2207 z"
           id="path1188" />
      </g>
      <g
         id="path4190-3-64">
        <path
           style="color:#000000;fill:#a23c0b;fill-rule:evenodd;stroke-width:0.0481347;-inkscape-stroke:none"
           d="m 162.55062,139.02547 -0.24706,1.33663 2.18312,-0.003 0.0571,-0.55757 c 0.1512,0.003 0.26881,-0.0161 0.28862,-0.15672 0.0224,-0.15919 -0.10543,-0.17362 -0.25487,-0.17306 l 0.0465,-0.45399 z"
           id="path1192" />
        <path
           style="color:#000000;fill:#ffffff;fill-rule:evenodd;-inkscape-stroke:none"
           d="m 164.65039,138.99414 -2.11914,0.008 -0.004,0.0195 -0.25195,1.36524 2.23242,-0.004 0.0586,-0.56054 c 0.0664,1.4e-4 0.12938,-0.002 0.17968,-0.0234 0.0569,-0.0246 0.0986,-0.0737 0.10938,-0.15039 0.006,-0.043 0.004,-0.0783 -0.01,-0.10742 -0.0137,-0.0291 -0.0388,-0.0509 -0.0664,-0.0645 -0.0483,-0.0236 -0.11081,-0.0248 -0.17578,-0.0254 z m -0.0527,0.0469 -0.0469,0.45507 h 0.0273 c 0.0739,-2.7e-4 0.14121,0.004 0.18165,0.0234 0.0202,0.01 0.0324,0.0226 0.041,0.041 0.009,0.0184 0.013,0.0435 0.008,0.0801 -0.009,0.0639 -0.0354,0.0959 -0.0801,0.11524 -0.0447,0.0193 -0.10913,0.023 -0.1836,0.0215 h -0.0234 l -0.0566,0.5586 -2.13086,0.002 0.23633,-1.28906 z"
           id="path1194" />
      </g>
      <g
         id="path4190-3-6-7">
        <path
           style="color:#000000;fill:#a23c0b;fill-rule:evenodd;stroke-width:0.0481347;-inkscape-stroke:none"
           d="m 166.99528,137.66229 0.009,1.28018 2.20366,-0.006 -0.15493,-1.26546 z"
           id="path1198" />
        <path
           style="color:#000000;fill:#ffffff;fill-rule:evenodd;-inkscape-stroke:none"
           d="m 166.9707,137.63867 v 0.0234 l 0.01,1.30469 2.2539,-0.006 -0.16015,-1.31446 z m 0.0488,0.0469 2.01172,0.01 0.14844,1.2168 -2.15235,0.006 z"
           id="path1200" />
      </g>
      <g
         id="path4190-3-6-9">
        <path
           style="color:#000000;fill:#ff9b6b;fill-rule:evenodd;stroke-width:0.0481347;-inkscape-stroke:none"
           d="m 169.2887,139.0057 0.1636,1.33617 2.09486,-8.5e-4 -0.29111,-1.33588 z"
           id="path1204" />
        <path
           style="color:#000000;fill:#ffffff;fill-rule:evenodd;-inkscape-stroke:none"
           d="m 171.27539,138.98047 -2.01367,0.002 0.004,0.0254 0.16602,1.35742 h 2.14453 z m -1.95898,0.0488 h 1.91992 l 0.28125,1.28711 -2.04492,0.002 z"
           id="path1206" />
      </g>
      <g
         id="path4190-3-0">
        <path
           style="color:#000000;fill:#a23c0b;fill-rule:evenodd;stroke-width:0.0481347;-inkscape-stroke:none"
           d="m 164.37366,141.97673 -0.19269,1.71738 2.7835,-0.003 -0.003,-0.69821 c 0.27966,-0.0109 0.31561,-0.10557 0.31002,-0.19963 -0.0116,-0.19519 -0.20461,-0.19838 -0.31223,-0.20749 l -0.003,-0.63271 z"
           id="path1210" />
        <path
           style="color:#000000;fill:#ffffff;fill-rule:evenodd;-inkscape-stroke:none"
           d="m 166.98047,141.92969 -2.62891,0.0234 -0.002,0.0215 -0.19531,1.74414 2.83398,-0.004 -0.002,-0.70312 c 0.12155,-0.008 0.20626,-0.0295 0.25195,-0.0684 0.0499,-0.0425 0.0597,-0.10179 0.0566,-0.15234 -0.006,-0.10548 -0.066,-0.16467 -0.13476,-0.19336 -0.0614,-0.0256 -0.12616,-0.0273 -0.17774,-0.0312 z m -0.0488,0.0469 0.004,0.63086 0.0215,0.002 c 0.0548,0.005 0.12804,0.009 0.18555,0.0332 0.0575,0.024 0.10014,0.0626 0.10547,0.15234 0.003,0.0435 -0.004,0.0802 -0.041,0.11133 -0.0366,0.0311 -0.10893,0.0572 -0.24609,0.0625 l -0.0234,0.002 0.002,0.69727 -2.73047,0.002 0.1875,-1.66992 z"
           id="path1212" />
      </g>
      <g
         aria-label="FOSSi"
         id="text4886"
         style="font-size:2.88809px;letter-spacing:0px;word-spacing:0px;fill:#f6f6f6;fill-opacity:1;stroke-width:0.240674px">
        <path
           d="m 162.97126,145.31716 v 0.4633 h -1.56438 v 1.24549 h 1.1793 v 0.45728 h -1.1793 v 1.77496 h -0.51143 v -3.94103 z"
           style="-inkscape-font-specification:'Ropa Sans';fill:#f6f6f6;fill-opacity:1"
           id="path1122" />
        <path
           d="m 164.76426,145.24496 q 0.67389,0 0.99278,0.33694 0.3189,0.33695 0.3189,0.95668 v 1.4982 q 0,0.61973 -0.3189,0.95667 -0.31889,0.33695 -0.99278,0.33695 -0.67388,0 -0.99277,-0.33695 -0.3189,-0.33694 -0.3189,-0.95667 v -1.4982 q 0,-0.61973 0.3189,-0.95668 0.31889,-0.33694 0.99277,-0.33694 z m 0,0.45126 q -0.39711,0 -0.60168,0.19856 -0.19855,0.19856 -0.19855,0.58363 v 1.61252 q 0,0.38507 0.19855,0.58965 0.20457,0.19855 0.60168,0.19855 0.39712,0 0.59567,-0.19855 0.20457,-0.20458 0.20457,-0.58965 v -1.6065 q 0,-0.38508 -0.20457,-0.58363 -0.19855,-0.20458 -0.59567,-0.20458 z"
           style="-inkscape-font-specification:'Ropa Sans';fill:#f6f6f6;fill-opacity:1"
           id="path1124" />
        <path
           d="m 167.87497,145.24496 q 0.32491,0 0.84838,0.0963 l -0.012,0.45126 q -0.49338,-0.0963 -0.83634,-0.0963 -0.34898,0 -0.50541,0.13839 -0.15042,0.13839 -0.15042,0.42118 v 0.15644 q 0,0.15042 0.0361,0.24067 0.0421,0.0842 0.1444,0.15042 0.10229,0.0602 0.30686,0.12636 l 0.55957,0.18652 q 0.40312,0.13839 0.56558,0.36703 0.16847,0.22864 0.16847,0.66787 v 0.11432 q 0,0.53549 -0.31288,0.80024 -0.30685,0.26474 -1.01082,0.26474 -0.34296,0 -0.87846,-0.12034 l 0.012,-0.4633 q 0.4994,0.12034 0.85439,0.12034 0.45126,0 0.63779,-0.13237 0.18652,-0.13839 0.18652,-0.4272 v -0.19855 q 0,-0.21059 -0.0963,-0.31889 -0.0902,-0.11432 -0.32491,-0.19254 l -0.61973,-0.20458 q -0.41517,-0.13838 -0.57762,-0.35499 -0.16246,-0.22262 -0.16246,-0.66787 v -0.0662 q 0,-0.52347 0.27678,-0.78821 0.28279,-0.27076 0.89049,-0.27076 z"
           style="-inkscape-font-specification:'Ropa Sans';fill:#f6f6f6;fill-opacity:1"
           id="path1126" />
        <path
           d="m 170.5284,145.24496 q 0.32491,0 0.84837,0.0963 l -0.012,0.45126 q -0.49338,-0.0963 -0.83634,-0.0963 -0.34898,0 -0.50542,0.13839 -0.15042,0.13839 -0.15042,0.42118 v 0.15644 q 0,0.15042 0.0361,0.24067 0.0421,0.0842 0.14441,0.15042 0.10228,0.0602 0.30686,0.12636 l 0.55956,0.18652 q 0.40313,0.13839 0.56559,0.36703 0.16847,0.22864 0.16847,0.66787 v 0.11432 q 0,0.53549 -0.31288,0.80024 -0.30686,0.26474 -1.01083,0.26474 -0.34296,0 -0.87846,-0.12034 l 0.012,-0.4633 q 0.49939,0.12034 0.85439,0.12034 0.45126,0 0.63778,-0.13237 0.18653,-0.13839 0.18653,-0.4272 v -0.19855 q 0,-0.21059 -0.0963,-0.31889 -0.0903,-0.11432 -0.32491,-0.19254 l -0.61974,-0.20458 q -0.41516,-0.13838 -0.57761,-0.35499 -0.16246,-0.22262 -0.16246,-0.66787 v -0.0662 q 0,-0.52347 0.27678,-0.78821 0.28279,-0.27076 0.89049,-0.27076 z"
           style="-inkscape-font-specification:'Ropa Sans';fill:#f6f6f6;fill-opacity:1"
           id="path1128" />
        <path
           d="m 172.79675,146.32198 v 2.93621 h -0.51143 v -2.93621 z m -0.25873,-1.18532 q 0.16246,0 0.2467,0.0722 0.0902,0.0722 0.0902,0.20457 v 0.17449 q 0,0.13237 -0.0902,0.20457 -0.0842,0.0662 -0.2467,0.0662 -0.15643,0 -0.24669,-0.0662 -0.0842,-0.0722 -0.0842,-0.20457 v -0.17449 q 0,-0.13237 0.0842,-0.20457 0.0903,-0.0722 0.24669,-0.0722 z"
           style="-inkscape-font-specification:'Ropa Sans';fill:#f6f6f6;fill-opacity:1"
           id="path1130" />
      </g>
      <g
         aria-label="Foundation"
         id="text4890"
         style="font-size:2.88809px;letter-spacing:0px;word-spacing:0px;fill:#ffffff;fill-opacity:1;stroke-width:0.240674px">
        <path
           d="m 161.85065,149.87304 v 0.23164 h -0.78219 v 0.62275 h 0.58965 v 0.22864 h -0.58965 v 0.88748 h -0.25572 v -1.97051 z"
           style="-inkscape-font-specification:'Ropa Sans';fill:#ffffff;fill-opacity:1"
           id="path1133" />
        <path
           d="m 162.45052,150.33934 q 0.26775,0 0.39712,0.14441 0.13237,0.14139 0.13237,0.40312 v 0.44525 q 0,0.26173 -0.13237,0.40614 -0.12937,0.14139 -0.39712,0.14139 -0.26775,0 -0.40012,-0.14139 -0.12936,-0.14441 -0.12936,-0.40614 v -0.44525 q 0,-0.26173 0.12936,-0.40312 0.13237,-0.14441 0.40012,-0.14441 z m 0,0.2136 q -0.12936,0 -0.20156,0.0812 -0.0722,0.0812 -0.0722,0.23165 v 0.48736 q 0,0.15042 0.0722,0.23165 0.0722,0.0812 0.20156,0.0812 0.12937,0 0.20157,-0.0812 0.0722,-0.0812 0.0722,-0.23165 v -0.49037 q 0,-0.15042 -0.0722,-0.22864 -0.0722,-0.0812 -0.20157,-0.0812 z"
           style="-inkscape-font-specification:'Ropa Sans';fill:#ffffff;fill-opacity:1"
           id="path1135" />
        <path
           d="m 164.32898,151.84355 h -0.24067 v -0.21059 q -0.0812,0.12034 -0.18051,0.18352 -0.0993,0.0632 -0.21059,0.0632 -0.18351,0 -0.2888,-0.12635 -0.10229,-0.12936 -0.10229,-0.37605 v -1.00181 h 0.25571 v 0.95668 q 0,0.15945 0.0481,0.23466 0.0511,0.0752 0.13839,0.0752 0.0812,0 0.16847,-0.0632 0.0902,-0.0662 0.15644,-0.1805 v -1.02287 h 0.25571 z"
           style="-inkscape-font-specification:'Ropa Sans';fill:#ffffff;fill-opacity:1"
           id="path1137" />
        <path
           d="m 165.32597,150.33934 q 0.19254,0 0.29483,0.13237 0.10529,0.12936 0.10529,0.37004 v 1.0018 h -0.25572 v -0.9657 q 0,-0.30084 -0.19554,-0.30084 -0.0873,0 -0.1775,0.0662 -0.0902,0.0662 -0.15644,0.18051 v 1.01985 h -0.25571 v -1.46811 h 0.24067 v 0.21962 q 0.0812,-0.12335 0.18051,-0.18953 0.10228,-0.0662 0.21961,-0.0662 z"
           style="-inkscape-font-specification:'Ropa Sans';fill:#ffffff;fill-opacity:1"
           id="path1139" />
        <path
           d="m 167.09312,151.84355 h -0.24369 v -0.23766 q -0.1805,0.27376 -0.41215,0.27376 -0.18652,0 -0.2858,-0.12635 -0.0993,-0.12936 -0.0993,-0.37605 v -0.5355 q 0,-0.23767 0.10831,-0.37004 0.11131,-0.13237 0.31588,-0.13237 0.0872,0 0.18351,0.0451 0.0963,0.0421 0.1775,0.10529 v -0.70096 h 0.25572 z m -0.55957,-1.27557 q -0.1083,0 -0.16847,0.0782 -0.0572,0.0752 -0.0572,0.23165 v 0.4663 q 0,0.30686 0.18953,0.30686 0.0903,0 0.1775,-0.0692 0.0902,-0.0722 0.16245,-0.20157 v -0.66185 q -0.0632,-0.0662 -0.15042,-0.1083 -0.0842,-0.0421 -0.15343,-0.0421 z"
           style="-inkscape-font-specification:'Ropa Sans';fill:#ffffff;fill-opacity:1"
           id="path1141" />
        <path
           d="m 167.89757,150.33934 q 0.25872,0 0.37605,0.11733 0.12034,0.11432 0.12034,0.36703 v 1.01985 h -0.24368 v -0.23466 q -0.17449,0.27076 -0.39411,0.27076 -0.17449,0 -0.27978,-0.12033 -0.10229,-0.12034 -0.10229,-0.32792 v -0.0842 q 0,-0.1805 0.12335,-0.29783 0.12334,-0.12034 0.33092,-0.12034 0.11432,0 0.30987,0.0391 v -0.16546 q 0,-0.12936 -0.0602,-0.18652 -0.0572,-0.0572 -0.1805,-0.0572 -0.14441,0 -0.40614,0.0451 v -0.21961 q 0.28279,-0.0451 0.40614,-0.0451 z m -0.006,0.78821 q -0.12635,0 -0.19254,0.0662 -0.0662,0.0662 -0.0662,0.18652 v 0.0331 q 0,0.11131 0.0511,0.17449 0.0511,0.0632 0.12936,0.0632 0.0812,0 0.16547,-0.0692 0.0872,-0.0722 0.15944,-0.20157 v -0.23164 q -0.11432,-0.0211 -0.24669,-0.0211 z"
           style="-inkscape-font-specification:'Ropa Sans';fill:#ffffff;fill-opacity:1"
           id="path1143" />
        <path
           d="m 169.03595,150.37544 h 0.3911 v 0.21059 h -0.3911 v 0.86041 q 0,0.11432 0.0451,0.16546 0.0481,0.0481 0.14741,0.0481 0.12635,0 0.24669,-0.0301 l 0.006,0.2136 q -0.13237,0.0361 -0.24068,0.0361 -0.24067,0 -0.35198,-0.10529 -0.1083,-0.10831 -0.1083,-0.34898 v -0.83935 h -0.21059 v -0.21059 h 0.21059 l 0.0481,-0.39109 h 0.20758 z"
           style="-inkscape-font-specification:'Ropa Sans';fill:#ffffff;fill-opacity:1"
           id="path1145" />
        <path
           d="m 169.94269,150.37544 v 1.46811 h -0.25572 v -1.46811 z m -0.12936,-0.59266 q 0.0812,0 0.12334,0.0361 0.0451,0.0361 0.0451,0.10229 v 0.0873 q 0,0.0662 -0.0451,0.10228 -0.0421,0.0331 -0.12334,0.0331 -0.0782,0 -0.12335,-0.0331 -0.0421,-0.0361 -0.0421,-0.10228 v -0.0873 q 0,-0.0662 0.0421,-0.10229 0.0451,-0.0361 0.12335,-0.0361 z"
           style="-inkscape-font-specification:'Ropa Sans';fill:#ffffff;fill-opacity:1"
           id="path1147" />
        <path
           d="m 170.79828,150.33934 q 0.26775,0 0.39712,0.14441 0.13237,0.14139 0.13237,0.40312 v 0.44525 q 0,0.26173 -0.13237,0.40614 -0.12937,0.14139 -0.39712,0.14139 -0.26775,0 -0.40012,-0.14139 -0.12936,-0.14441 -0.12936,-0.40614 v -0.44525 q 0,-0.26173 0.12936,-0.40312 0.13237,-0.14441 0.40012,-0.14441 z m 0,0.2136 q -0.12936,0 -0.20156,0.0812 -0.0722,0.0812 -0.0722,0.23165 v 0.48736 q 0,0.15042 0.0722,0.23165 0.0722,0.0812 0.20156,0.0812 0.12937,0 0.20157,-0.0812 0.0722,-0.0812 0.0722,-0.23165 v -0.49037 q 0,-0.15042 -0.0722,-0.22864 -0.0722,-0.0812 -0.20157,-0.0812 z"
           style="-inkscape-font-specification:'Ropa Sans';fill:#ffffff;fill-opacity:1"
           id="path1149" />
        <path
           d="m 172.29467,150.33934 q 0.19254,0 0.29483,0.13237 0.10529,0.12936 0.10529,0.37004 v 1.0018 h -0.25571 v -0.9657 q 0,-0.30084 -0.19555,-0.30084 -0.0872,0 -0.1775,0.0662 -0.0903,0.0662 -0.15644,0.18051 v 1.01985 h -0.25571 v -1.46811 h 0.24067 v 0.21962 q 0.0812,-0.12335 0.18051,-0.18953 0.10228,-0.0662 0.21961,-0.0662 z"
           style="-inkscape-font-specification:'Ropa Sans';fill:#ffffff;fill-opacity:1"
           id="path1151" />
      </g>
      <g
         id="path4190-3-4">
        <path
           style="color:#000000;fill:#e77843;fill-rule:evenodd;stroke-width:0.0481347;-inkscape-stroke:none"
           d="m 169.46305,140.40978 0.0678,0.54671 c -0.22157,0.0139 -0.25129,0.0546 -0.24181,0.20017 0.0415,0.14393 0.0153,0.18167 0.29051,0.19259 l 0.0666,0.53707 2.23268,0.003 -0.33307,-1.48202 -0.88452,-0.008 c -0.0684,-0.31685 -0.0858,-0.27697 -0.27945,-0.32181 -0.22558,0.0204 -0.22617,0.0599 -0.18695,0.32229 z"
           id="path1246" />
        <path
           style="color:#000000;fill:#ffffff;fill-rule:evenodd;-inkscape-stroke:none"
           d="m 170.37891,140.05273 c -0.0571,0.005 -0.10003,0.0115 -0.13477,0.0234 -0.0347,0.0119 -0.0613,0.0319 -0.0762,0.0606 -0.0265,0.0511 -0.012,0.13137 0.004,0.23828 l -0.73632,0.0117 0.004,0.0254 0.0664,0.52539 c -0.0922,0.007 -0.1614,0.0172 -0.19922,0.0508 -0.0211,0.0187 -0.0334,0.0441 -0.0391,0.0723 -0.006,0.0281 -0.004,0.0604 -0.002,0.0976 v 0.002 0.004 c 0.0101,0.0351 0.0171,0.064 0.0254,0.0898 0.008,0.0258 0.0182,0.0482 0.0391,0.0664 0.0385,0.0336 0.11077,0.0429 0.22851,0.0488 l 0.0664,0.54102 2.2832,0.004 -0.34375,-1.53125 -0.88672,-0.008 c -0.0302,-0.13647 -0.0499,-0.21605 -0.0918,-0.25586 -0.0226,-0.0214 -0.0504,-0.0331 -0.082,-0.041 -0.0316,-0.008 -0.0696,-0.0124 -0.11719,-0.0234 l -0.004,-0.002 z m 0.002,0.0488 c 0.0469,0.0107 0.084,0.0166 0.11133,0.0234 0.0282,0.007 0.046,0.0155 0.0605,0.0293 0.0291,0.0276 0.0519,0.0922 0.0859,0.25 l 0.004,0.0195 0.88476,0.008 0.32227,1.43359 -2.18164,-0.004 -0.0664,-0.53516 h -0.0215 c -0.13648,-0.005 -0.19252,-0.0198 -0.2168,-0.041 -0.0121,-0.0106 -0.0203,-0.0248 -0.0273,-0.0469 -0.007,-0.0211 -0.0136,-0.0492 -0.0234,-0.084 v -0.004 c -0.002,-0.0332 -0.002,-0.0602 0.002,-0.0801 0.004,-0.0209 0.0126,-0.0336 0.0254,-0.0449 0.0256,-0.0227 0.084,-0.0381 0.19336,-0.0449 l 0.0254,-0.002 -0.0684,-0.54493 0.73243,-0.01 -0.004,-0.0274 c -0.0196,-0.131 -0.025,-0.20516 -0.008,-0.23828 0.009,-0.0165 0.0212,-0.0257 0.0488,-0.0351 0.0267,-0.009 0.0679,-0.0165 0.12109,-0.0215 z"
           id="path1248" />
      </g>
      <g
         id="path4190-3">
        <path
           style="color:#000000;fill:#ce561c;fill-rule:evenodd;stroke-width:0.0481347;-inkscape-stroke:none"
           d="m 167.00467,139.01544 0.002,0.38838 c -0.14594,0.007 -0.2506,0.0496 -0.23366,0.23793 -8.5e-4,0.14984 0.0821,0.1902 0.23518,0.19416 l 0.002,0.51398 0.90805,-8.6e-4 c 0.0588,-0.12629 0.0643,-0.2114 0.18399,-0.2245 0.0745,-0.009 0.12856,0.12081 0.19825,0.22402 l 1.08263,-0.002 -0.0701,-0.53142 c 0.2143,-0.0298 0.33046,-0.007 0.29049,-0.24794 -0.0331,-0.12237 -0.12002,-0.16296 -0.34021,-0.15859 l -0.0438,-0.39965 -0.91902,0.003 c -0.0503,-0.25298 -0.0924,-0.29388 -0.234,-0.29764 -0.0795,-0.003 -0.2184,0.0346 -0.18981,0.29884 z"
           id="path1252" />
        <path
           style="color:#000000;fill:#ffffff;fill-rule:evenodd;-inkscape-stroke:none"
           d="m 168.06641,138.68945 c -0.0441,-0.002 -0.10496,0.008 -0.15235,0.0566 -0.0426,0.0436 -0.0603,0.12896 -0.0547,0.24219 l -0.8789,0.004 v 0.0234 l 0.002,0.3711 c -0.0642,0.005 -0.12681,0.0131 -0.16992,0.0488 -0.0491,0.0407 -0.0714,0.11025 -0.0625,0.20898 2.1e-4,0.0777 0.0224,0.1341 0.0684,0.16797 0.0408,0.0301 0.10042,0.0372 0.16601,0.041 l 0.002,0.51953 h 0.94726 l 0.006,-0.0137 c 0.0302,-0.0648 0.0472,-0.11782 0.0684,-0.15234 0.0211,-0.0345 0.0434,-0.0526 0.0977,-0.0586 0.0114,-0.001 0.0218,0.002 0.0352,0.0117 0.0134,0.0101 0.0279,0.0277 0.043,0.0488 0.0301,0.0422 0.0618,0.0993 0.0977,0.15235 l 0.006,0.0117 1.12305,-0.002 -0.0703,-0.53515 c 0.0919,-0.0111 0.17013,-0.0148 0.22461,-0.0449 0.0301,-0.0166 0.0544,-0.0445 0.0645,-0.082 0.0101,-0.0376 0.008,-0.0845 -0.002,-0.14648 v -0.002 c -0.0178,-0.0657 -0.0539,-0.11489 -0.11328,-0.14258 -0.0543,-0.0253 -0.13131,-0.0315 -0.22851,-0.0312 l -0.0449,-0.40235 -0.92187,0.004 c -0.0231,-0.11081 -0.0452,-0.18926 -0.082,-0.23437 -0.0398,-0.0488 -0.0969,-0.0625 -0.16992,-0.0645 z m 0,0.0488 c 0.0685,0.002 0.1036,0.0111 0.13281,0.0469 0.0292,0.0358 0.0532,0.10694 0.0781,0.23242 l 0.004,0.0176 0.91602,-0.002 0.0449,0.40039 h 0.0215 c 0.10856,-0.002 0.18306,0.007 0.23047,0.0293 0.0474,0.0221 0.0706,0.0546 0.0859,0.11133 0.009,0.0556 0.009,0.097 0.002,0.12305 -0.007,0.0268 -0.0203,0.0412 -0.041,0.0527 -0.0415,0.023 -0.12191,0.0259 -0.23047,0.041 l -0.0254,0.004 0.0703,0.52735 -1.04297,0.002 c -0.0309,-0.0473 -0.0593,-0.10177 -0.0898,-0.14453 -0.0165,-0.0231 -0.0328,-0.0436 -0.0527,-0.0586 -0.0199,-0.015 -0.0445,-0.0226 -0.0703,-0.0195 -0.0654,0.007 -0.10657,0.0372 -0.13281,0.0801 -0.0236,0.0386 -0.0389,0.0889 -0.0625,0.14258 l -0.8711,0.002 -0.002,-0.51367 h -0.0215 c -0.0745,-0.002 -0.12917,-0.0148 -0.16211,-0.0391 -0.0329,-0.0243 -0.0512,-0.0604 -0.0508,-0.13086 v -0.002 -0.002 c -0.008,-0.0896 0.0114,-0.13662 0.0469,-0.16601 0.0354,-0.0294 0.0932,-0.0415 0.16406,-0.0449 l 0.0234,-0.002 -0.002,-0.38672 0.875,-0.002 -0.004,-0.0273 c -0.0138,-0.12786 0.014,-0.19291 0.0488,-0.22852 0.0348,-0.0356 0.0817,-0.0443 0.11719,-0.043 z"
           id="path1254" />
      </g>
      <g
         id="path4190">
        <path
           style="color:#000000;fill:#ce561c;fill-rule:evenodd;stroke-width:0.0481347;-inkscape-stroke:none"
           d="m 164.54202,140.42569 -0.15529,1.4641 1.00465,-8.6e-4 c 0.003,0.20704 0.0425,0.31129 0.22482,0.32216 0.18712,-0.013 0.2402,-0.0629 0.26545,-0.32253 l 1.06996,-8.5e-4 c -8.5e-4,-0.17978 -0.003,-0.35955 -0.003,-0.53933 -0.0563,-0.0187 -0.30088,-0.0216 -0.28835,-0.19623 -0.019,-0.15788 0.1954,-0.16468 0.286,-0.15243 l -0.004,-0.57711 -1.027,0.002 c -0.0459,0.18277 -0.17654,0.22901 -0.23481,0.21355 -0.0774,-0.0205 -0.18784,-0.0917 -0.19727,-0.21283 z"
           id="path1258" />
        <path
           style="color:#000000;fill:#ffffff;fill-rule:evenodd;-inkscape-stroke:none"
           d="m 166.9668,140.39844 -1.07032,0.002 -0.004,0.0176 c -0.0217,0.0866 -0.0628,0.13899 -0.10352,0.16797 -0.0408,0.029 -0.0825,0.0344 -0.10156,0.0293 -0.0348,-0.009 -0.0802,-0.0301 -0.11523,-0.0625 -0.0351,-0.0324 -0.0603,-0.0752 -0.0645,-0.1289 l -0.002,-0.0234 -0.98633,0.002 -0.002,0.0215 -0.15821,1.49023 1.01172,-0.002 c 0.003,0.0912 0.0111,0.17002 0.0449,0.22461 0.0374,0.0602 0.10359,0.0919 0.19921,0.0977 h 0.002 c 0.0955,-0.007 0.16509,-0.0226 0.21093,-0.0762 0.0422,-0.0493 0.0595,-0.13239 0.0723,-0.24609 h 1.07617 v -0.0254 c -8.5e-4,-0.1799 -0.004,-0.35948 -0.004,-0.53906 v -0.0176 l -0.0156,-0.004 c -0.0188,-0.006 -0.0441,-0.0101 -0.0742,-0.0156 -0.0301,-0.006 -0.0646,-0.0118 -0.0957,-0.0234 -0.0311,-0.0116 -0.0579,-0.028 -0.0762,-0.0488 -0.0182,-0.0208 -0.0301,-0.0459 -0.0273,-0.084 v -0.002 -0.004 c -0.004,-0.0341 0.005,-0.0545 0.0195,-0.0723 0.0148,-0.0178 0.038,-0.032 0.0664,-0.041 0.0569,-0.0181 0.13161,-0.0174 0.17383,-0.0117 l 0.0273,0.004 z m -0.0488,0.0488 0.004,0.53125 c -0.0481,-0.004 -0.10929,-0.009 -0.16796,0.01 -0.0341,0.0109 -0.065,0.0291 -0.0879,0.0566 -0.0221,0.0266 -0.0334,0.0626 -0.0293,0.10547 -5e-5,7.4e-4 4e-5,10e-4 0,0.002 8e-5,7.5e-4 -9e-5,0.001 0,0.002 -0.002,0.0473 0.012,0.0867 0.0371,0.11523 0.0258,0.0294 0.0601,0.0492 0.0957,0.0625 0.0356,0.0133 0.0723,0.0197 0.10352,0.0254 0.0231,0.004 0.0378,0.007 0.0508,0.01 1.4e-4,0.16502 0.003,0.33133 0.004,0.49609 l -1.06836,0.002 -0.002,0.0215 c -0.0125,0.12834 -0.0326,0.20073 -0.0664,0.24023 -0.0335,0.0391 -0.0839,0.0541 -0.17383,0.0606 -0.0867,-0.005 -0.13143,-0.0298 -0.16016,-0.0762 -0.0287,-0.0464 -0.0395,-0.12061 -0.041,-0.22266 v -0.0234 h -1.00391 l 0.15234,-1.41601 h 0.9043 c 0.0108,0.0554 0.034,0.10513 0.0703,0.13867 0.0418,0.0386 0.0921,0.0629 0.13477,0.0742 0.0392,0.0104 0.092,-0.001 0.14258,-0.0371 0.0456,-0.0324 0.0856,-0.095 0.11132,-0.17578 z"
           id="path1260" />
      </g>
      <g
         id="path4190-3-62">
        <path
           style="color:#000000;fill:#ff9b6b;fill-rule:evenodd;stroke-width:0.0481347;-inkscape-stroke:none"
           d="m 162.29483,140.42954 -0.25857,1.45951 2.27851,2e-5 0.0656,-0.60701 c 0.17111,-0.005 0.26614,-0.0677 0.26926,-0.16393 0.0316,-0.14433 -0.007,-0.19391 -0.22884,-0.21013 l 0.0517,-0.47845 -0.89264,-1e-5 c 0.0333,-0.21588 -0.0261,-0.32002 -0.15961,-0.31765 -0.13068,0.003 -0.17553,0.0866 -0.22263,0.31765 z"
           id="path1264" />
        <path
           style="color:#000000;fill:#ffffff;fill-rule:evenodd;-inkscape-stroke:none"
           d="m 163.41992,140.08789 c -0.0704,0.002 -0.12505,0.0284 -0.16211,0.084 -0.0345,0.0517 -0.0561,0.13064 -0.0781,0.23438 h -0.9043 l -0.004,0.0195 -0.26367,1.48828 h 2.32813 l 0.0664,-0.61328 c 0.0759,-0.005 0.14194,-0.0185 0.1875,-0.0469 0.0508,-0.0316 0.0822,-0.0789 0.084,-0.13477 0.008,-0.0355 0.0108,-0.0675 0.008,-0.0957 -0.003,-0.0294 -0.0143,-0.0559 -0.0352,-0.0762 -0.037,-0.0359 -0.10785,-0.0458 -0.19921,-0.0547 l 0.0527,-0.48633 h -0.89844 c 0.0109,-0.0939 0.0103,-0.17477 -0.0176,-0.22852 -0.0312,-0.0602 -0.091,-0.0911 -0.16406,-0.0898 z m 0,0.0488 c 0.0604,-10e-4 0.0976,0.0172 0.1211,0.0625 0.0235,0.0453 0.0318,0.12133 0.0156,0.22656 l -0.004,0.0273 h 0.89454 l -0.0527,0.47657 0.0254,0.002 c 0.10924,0.008 0.16822,0.0264 0.19336,0.0508 0.0126,0.0122 0.0193,0.0259 0.0215,0.0469 0.002,0.021 -2e-4,0.0492 -0.008,0.084 l -0.002,0.002 v 0.002 c -0.001,0.0404 -0.0203,0.0726 -0.0606,0.0977 -0.0403,0.025 -0.10279,0.0405 -0.18554,0.043 h -0.0195 l -0.0664,0.60742 h -2.22852 l 0.25,-1.41211 h 0.90235 l 0.004,-0.0195 c 0.0234,-0.11461 0.0464,-0.18964 0.0762,-0.23437 0.0298,-0.0447 0.0628,-0.0611 0.12305,-0.0625 z"
           id="path1266" />
      </g>
      <g
         id="path4190-3-6">
        <path
           style="color:#000000;fill:#e77843;fill-rule:evenodd;stroke-width:0.0481347;-inkscape-stroke:none"
           d="m 164.85163,137.65221 -0.14489,1.29568 0.8841,-0.002 c -0.0192,0.22461 0.11872,0.20321 0.19151,0.21028 0.16035,0.0156 0.21627,-0.15221 0.20734,-0.211 l 0.94155,-0.002 -0.004,-0.53707 c 0.19582,-0.002 0.28012,-0.0263 0.27917,-0.14634 -8.5e-4,-0.1289 -0.10606,-0.18699 -0.28159,-0.16947 l -0.003,-0.43099 z"
           id="path1270" />
        <path
           style="color:#000000;fill:#ffffff;fill-rule:evenodd;-inkscape-stroke:none"
           d="m 164.83008,137.62891 -0.002,0.0215 -0.14843,1.32227 0.88867,-0.002 c -9.3e-4,0.0427 0.001,0.0837 0.0117,0.11133 0.0131,0.0343 0.0357,0.058 0.0605,0.0723 0.0498,0.0285 0.10606,0.0222 0.13868,0.0254 0.0887,0.009 0.15294,-0.0354 0.18945,-0.0879 0.0299,-0.043 0.0361,-0.0855 0.0371,-0.12305 l 0.94922,-0.002 -0.004,-0.54102 c 0.0834,-0.002 0.15242,-0.005 0.19922,-0.0273 0.0262,-0.0123 0.0471,-0.0289 0.0606,-0.0527 0.0135,-0.0239 0.0198,-0.0531 0.0195,-0.0859 -4.7e-4,-0.071 -0.0329,-0.12782 -0.0879,-0.16016 -0.0482,-0.0283 -0.11723,-0.0331 -0.19336,-0.0293 l -0.004,-0.43554 z m 0.043,0.0469 2.02539,0.008 0.002,0.4336 0.0273,-0.004 c 0.0847,-0.008 0.14968,0.003 0.19141,0.0273 0.0417,0.0246 0.0621,0.0612 0.0625,0.11915 2.2e-4,0.0272 -0.004,0.046 -0.0117,0.0605 -0.008,0.0145 -0.0198,0.0261 -0.0391,0.0352 -0.0385,0.0181 -0.10618,0.0264 -0.20313,0.0273 h -0.0254 l 0.004,0.53711 -0.94531,0.002 0.006,0.0273 c 0.003,0.0187 -0.008,0.0731 -0.0371,0.11523 -0.0293,0.0422 -0.0729,0.0753 -0.14453,0.0684 -0.0402,-0.004 -0.0885,-0.003 -0.1211,-0.0215 -0.0163,-0.009 -0.0295,-0.0219 -0.0391,-0.0469 -0.01,-0.025 -0.0144,-0.0634 -0.01,-0.11718 l 0.002,-0.0254 -0.88282,0.002 z"
           id="path1272" />
      </g>
    </g>
  </g>
</svg>
